<?xml version="1.0" encoding="utf-8"?>
<!-- Generator: Adobe Illustrator 16.0.2, SVG Export Plug-In . SVG Version: 6.00 Build 0)  -->
<!DOCTYPE svg PUBLIC "-//W3C//DTD SVG 1.1//EN" "http://www.w3.org/Graphics/SVG/1.1/DTD/svg11.dtd">
<svg version="1.1" id="Layer_1" xmlns="http://www.w3.org/2000/svg" xmlns:xlink="http://www.w3.org/1999/xlink" x="0px" y="0px"
	 width="311.81px" height="311.81px" viewBox="0 0 311.81 311.81" enable-background="new 0 0 311.81 311.81" xml:space="preserve">
<g>
	<g>
		<polygon fill="#292C33" points="27.15,81.57 155.91,7.23 284.66,81.57 284.66,230.24 155.91,304.58 27.15,230.24 		"/>
		<g>
			<g>
				<g>
					<g>
						<path fill="#7A7E87" d="M119.65,279.4l-32.58-8.47l34.3-17.01l20.68,17.45L119.65,279.4z"/>
					</g>
					<g>
						<path fill="#7A7E87" d="M52.41,245.88l-22.3-12.86l27.8-5.33l12.15,16.95L52.41,245.88z"/>
					</g>
					<g>
						<path fill="#7A7E87" d="M81.53,264.96l-28.93-8.53l31.06-14.19l18.07,16.19L81.53,264.96z"/>
					</g>
					<g>
						<path fill="#7A7E87" d="M48.84,224.69l-13.97-8.25l-11.56-21.39l23.4,10.42L48.84,224.69z"/>
					</g>
					<g>
						<path fill="#7A7E87" d="M38.26,192.15l-10.45-8.3l-7.25-18.6l17.83,11.19L38.26,192.15z"/>
					</g>
					<g>
						<path fill="#7A7E87" d="M37.86,156.4l-6.26-7.93l-2.43-14.78l11.16,11.37L37.86,156.4z"/>
					</g>
				</g>
				<g opacity="0.5">
					<g>
						<path fill="#7A7E87" d="M105.33,267.78l-29.52-17.64l36.99-6.47l19.79,20.04L105.33,267.78z"/>
					</g>
					<g>
						<path fill="#7A7E87" d="M71.8,214.55l-17.36-3.92l-18.53-18.89l28.12,2.93L71.8,214.55z"/>
					</g>
					<g>
						<path fill="#7A7E87" d="M73.68,238.65l-25.92-16.6l33.33-4.71l13.66,20.87L73.68,238.65z"/>
					</g>
					<g>
						<path fill="#7A7E87" d="M53.39,193.6l-12.97-13.48l-6.91-26.95l22.63,18.92L53.39,193.6z"/>
					</g>
					<g>
						<path fill="#7A7E87" d="M50.35,160.92l-9.73-13.18l-3.16-23.97l17.43,19.06L50.35,160.92z"/>
					</g>
					<g>
						<path fill="#7A7E87" d="M51.16,130.84l-4.19-9.45l1.12-15.01l8.12,14.22L51.16,130.84z"/>
					</g>
					<g>
						<path fill="#7A7E87" d="M56.61,112.26l-0.72-10.46l6.1-13.5l2.76,16.54L56.61,112.26z"/>
					</g>
					<g>
						<path fill="#7A7E87" d="M66.29,92.63l1.95-10.22l9.27-11.05l-1.53,16.7L66.29,92.63z"/>
					</g>
					<g>
						<path fill="#7A7E87" d="M79.53,75.87l3.74-8.27l10.22-7.19l-4.71,13.96L79.53,75.87z"/>
					</g>
				</g>
			</g>
			<g>
				<g>
					<g>
						<path fill="#7A7E87" d="M192.15,279.4l-22.39-8.04l20.67-17.45l34.3,17.01L192.15,279.4z"/>
					</g>
					<g>
						<path fill="#7A7E87" d="M259.4,245.88l-17.65-1.25l12.15-16.95l27.8,5.33L259.4,245.88z"/>
					</g>
					<g>
						<path fill="#7A7E87" d="M230.27,264.96l-20.21-6.54l18.08-16.19l31.07,14.19L230.27,264.96z"/>
					</g>
					<g>
						<path fill="#7A7E87" d="M262.97,224.69l2.12-19.22l23.41-10.42l-11.56,21.38L262.97,224.69z"/>
					</g>
					<g>
						<path fill="#7A7E87" d="M273.55,192.15l-0.13-15.72l17.83-11.19l-7.25,18.6L273.55,192.15z"/>
					</g>
					<g>
						<path fill="#7A7E87" d="M273.95,156.39l-2.47-11.33l11.17-11.37l-2.42,14.78L273.95,156.39z"/>
					</g>
				</g>
				<g opacity="0.5">
					<g>
						<path fill="#7A7E87" d="M206.48,267.78l-27.26-4.07l19.79-20.04l36.98,6.47L206.48,267.78z"/>
					</g>
					<g>
						<path fill="#7A7E87" d="M240.01,214.55l7.78-19.89l28.11-2.93l-18.52,18.89L240.01,214.55z"/>
					</g>
					<g>
						<path fill="#7A7E87" d="M238.12,238.65l-21.06-0.44l13.65-20.87l33.34,4.71L238.12,238.65z"/>
					</g>
					<g>
						<path fill="#7A7E87" d="M258.43,193.6l-2.75-21.52l22.61-18.92l-6.9,26.95L258.43,193.6z"/>
					</g>
					<g>
						<path fill="#7A7E87" d="M261.46,160.92l-4.54-18.09l17.43-19.06l-3.16,23.97L261.46,160.92z"/>
					</g>
					<g>
						<path fill="#7A7E87" d="M260.65,130.84l-5.05-10.24l8.12-14.22l1.12,15.01L260.65,130.84z"/>
					</g>
					<g>
						<path fill="#7A7E87" d="M255.2,112.26l-8.13-7.41l2.75-16.54l6.1,13.5L255.2,112.26z"/>
					</g>
					<g>
						<path fill="#7A7E87" d="M245.53,92.63l-9.68-4.57l-1.54-16.69l9.27,11.05L245.53,92.63z"/>
					</g>
					<g>
						<path fill="#7A7E87" d="M232.29,75.87l-9.25-1.5l-4.71-13.96l10.22,7.19L232.29,75.87z"/>
					</g>
				</g>
			</g>
		</g>
	</g>
	<linearGradient id="SVGID_1_" gradientUnits="userSpaceOnUse" x1="155.9043" y1="151.127" x2="155.9043" y2="410.6841">
		<stop  offset="0" style="stop-color:#282C33"/>
		<stop  offset="1" style="stop-color:#141616"/>
	</linearGradient>
	<polygon fill="url(#SVGID_1_)" points="43.51,91.02 155.91,26.13 268.3,91.02 268.3,220.79 155.91,285.68 43.51,220.79 	"/>
	<g>
		<path fill="#797E87" d="M155.91,287.42l-0.75-0.43L42.01,221.66V90.15l0.75-0.43l113.14-65.32L269.8,90.15v131.51l-0.75,0.43
			L155.91,287.42z M45.01,219.93l110.89,64.02l110.89-64.02V91.88L155.91,27.86L45.01,91.88V219.93z"/>
	</g>
</g>
</svg>
